<svg width="22" height="22" viewBox="0 0 22 22" fill="none" xmlns="http://www.w3.org/2000/svg">
<path d="M15.125 1.10001C14.9062 1.10001 14.6963 1.18693 14.5416 1.34164C14.3869 1.49636 14.3 1.7062 14.3 1.92501C14.3 4.35793 12.169 5.22501 10.175 5.22501H4.39998C3.52476 5.22501 2.68539 5.57268 2.06652 6.19155C1.44765 6.81042 1.09998 7.64979 1.09998 8.52501L1.09998 10.175C1.10178 10.669 1.21503 11.1561 1.4313 11.6003C1.64756 12.0444 1.96127 12.4339 2.34903 12.7399L5.29593 19.3168C5.50551 19.788 5.84717 20.1883 6.27955 20.4693C6.71193 20.7502 7.21649 20.8999 7.73215 20.9C8.14243 20.8997 8.54613 20.7969 8.90651 20.6008C9.26689 20.4046 9.57249 20.1215 9.79552 19.7771C10.0185 19.4328 10.1519 19.0381 10.1834 18.629C10.215 18.22 10.1437 17.8095 9.97615 17.435L8.16115 13.475H10.175C12.169 13.475 14.3 14.3421 14.3 16.775C14.3 16.9938 14.3869 17.2037 14.5416 17.3584C14.6963 17.5131 14.9062 17.6 15.125 17.6C15.3438 17.6 15.5536 17.5131 15.7083 17.3584C15.8631 17.2037 15.95 16.9938 15.95 16.775V1.92501C15.95 1.7062 15.8631 1.49636 15.7083 1.34164C15.5536 1.18693 15.3438 1.10001 15.125 1.10001ZM8.473 18.1107C8.52765 18.2341 8.55063 18.3692 8.53986 18.5037C8.5291 18.6383 8.48492 18.768 8.41135 18.8811C8.33777 18.9943 8.23712 19.0873 8.11852 19.1517C7.99992 19.2161 7.86712 19.2499 7.73215 19.25C7.5353 19.2499 7.34273 19.1926 7.17782 19.0851C7.01291 18.9776 6.88277 18.8245 6.8032 18.6445L4.4866 13.475H6.34615L8.473 18.1107ZM14.3 13.145C13.1213 12.2368 11.6619 11.7698 10.175 11.825H4.39998C3.96237 11.825 3.54268 11.6512 3.23325 11.3417C2.92381 11.0323 2.74998 10.6126 2.74998 10.175V8.52501C2.74998 8.0874 2.92381 7.66771 3.23325 7.35828C3.54268 7.04884 3.96237 6.87501 4.39998 6.87501H10.175C11.6614 6.93135 13.1207 6.46583 14.3 5.55913V13.145Z" fill="#CFD8E3"/>
<path d="M20.8175 13.8479C20.7691 13.9449 20.702 14.0314 20.6202 14.1025C20.5384 14.1736 20.4433 14.2278 20.3405 14.2621C20.2377 14.2965 20.1291 14.3102 20.021 14.3025C19.9128 14.2949 19.8073 14.266 19.7103 14.2175L18.0603 13.3925C17.8645 13.2947 17.7155 13.1231 17.6462 12.9155C17.5769 12.7078 17.5929 12.4812 17.6907 12.2853C17.7885 12.0895 17.9601 11.9406 18.1678 11.8713C18.3754 11.8019 18.602 11.8179 18.7979 11.9157L20.4479 12.7407C20.6427 12.8385 20.7909 13.0094 20.8602 13.216C20.9294 13.4227 20.9141 13.6484 20.8175 13.8438V13.8479ZM17.6907 6.4229C17.6423 6.32594 17.6134 6.22038 17.6057 6.11226C17.598 6.00413 17.6118 5.89555 17.6461 5.79273C17.6804 5.68991 17.7347 5.59486 17.8057 5.51302C17.8768 5.43117 17.9633 5.36414 18.0603 5.31575L19.7103 4.49075C19.9062 4.39294 20.1328 4.37694 20.3404 4.44625C20.5481 4.51556 20.7197 4.66452 20.8175 4.86035C20.9153 5.05618 20.9313 5.28284 20.862 5.49047C20.7927 5.6981 20.6437 5.86969 20.4479 5.9675L18.7979 6.7925C18.7009 6.84097 18.5954 6.86986 18.4872 6.87752C18.3791 6.88518 18.2705 6.87146 18.1677 6.83713C18.0649 6.80281 17.9698 6.74856 17.888 6.67748C17.8062 6.6064 17.7391 6.51989 17.6907 6.4229ZM17.6 9.35C17.6 9.13119 17.6869 8.92135 17.8416 8.76664C17.9963 8.61192 18.2062 8.525 18.425 8.525H20.075C20.2938 8.525 20.5036 8.61192 20.6583 8.76664C20.8131 8.92135 20.9 9.13119 20.9 9.35C20.9 9.5688 20.8131 9.77864 20.6583 9.93336C20.5036 10.0881 20.2938 10.175 20.075 10.175H18.425C18.2062 10.175 17.9963 10.0881 17.8416 9.93336C17.6869 9.77864 17.6 9.5688 17.6 9.35Z" fill="#CFD8E3"/>
</svg>
